<svg xmlns="http://www.w3.org/2000/svg" width="20" height="21" viewBox="0 0 20 21" fill="none">
    <path
        d="M16.6667 9.40039H18.3333V18.9837H16.6667V9.40039ZM14.1667 12.3171H15.8333V18.9837H14.1667V12.3171ZM11.6667 10.2337H13.3333V18.9837H11.6667V10.2337ZM9.16667 12.7337H10.8333V18.9837H9.16667V12.7337ZM6.66667 13.9837H8.33334V18.9837H6.66667V13.9837ZM4.16667 13.1504H5.83334V18.9837H4.16667V13.1504ZM1.66667 14.8171H3.33334V18.9837H1.66667V14.8171Z"
        fill="#A1A3F7" />
    <path
        d="M16.7083 4.44202L14.1667 6.98368L12.5 5.31702L8.33334 9.48368L6.25001 7.40035L1.91667 11.7337L3.08334 12.9004L6.25001 9.73368L8.33334 11.817L12.5 7.65035L14.1667 9.31702L17.875 5.60868L16.7083 4.44202Z"
        fill="#4285F4" />
    <path d="M18.3333 3.98376H14.5833L18.3333 7.73376V3.98376Z" fill="#4285F4" />
</svg>