<svg xmlns="http://www.w3.org/2000/svg" width="18" height="16" viewBox="0 0 18 16" fill="none">
    <path
        d="M2.01535 0H15.4393C16.5506 0 17.4546 0.904021 17.4546 2.01528V10.3483C17.4546 11.4596 16.5506 12.3636 15.4393 12.3636H6.8466L3.42334 15.7869C3.28442 15.9258 3.09825 16 2.90914 16C2.81533 16 2.72079 15.9818 2.63059 15.9447C2.35858 15.832 2.18185 15.5666 2.18185 15.2727V12.3636H2.01532C0.904057 12.3636 6.86646e-05 11.4596 6.86646e-05 10.3483V2.01528C6.86646e-05 0.904021 0.904057 0 2.01535 0ZM4.3637 8H13.091C13.4931 8 13.8182 7.67419 13.8182 7.27274C13.8182 6.87129 13.4931 6.54548 13.091 6.54548H4.3637C3.96153 6.54548 3.63644 6.87129 3.63644 7.27274C3.63644 7.67419 3.96153 8 4.3637 8ZM4.3637 5.09093H10.9091C11.3113 5.09093 11.6364 4.76512 11.6364 4.36366C11.6364 3.96221 11.3113 3.63637 10.9091 3.63637H4.3637C3.96153 3.63637 3.63644 3.96218 3.63644 4.36363C3.63644 4.76508 3.96153 5.09093 4.3637 5.09093Z"
        fill="#4285F4" />
</svg>