<svg xmlns="http://www.w3.org/2000/svg" width="11" height="11" viewBox="0 0 11 11" fill="none">
    <path
        d="M1.17968 6.01511H7.95163L5.90469 8.30811C5.67263 8.55918 5.57956 8.93098 5.66126 9.28061C5.74295 9.63024 5.9867 9.90329 6.29881 9.9948C6.61092 10.0863 6.94282 9.98206 7.16696 9.72211L10.7377 5.72211C10.9056 5.5345 11 5.27976 11 5.01411C11 4.74845 10.9056 4.49371 10.7377 4.30611L7.16696 0.306106C6.8179 -0.0843592 6.25236 -0.0839115 5.9038 0.307106C5.55523 0.698124 5.55563 1.33164 5.90469 1.72211L7.95163 4.01511H1.17968C0.686659 4.01511 0.286987 4.46282 0.286987 5.01511C0.286987 5.56739 0.686659 6.01511 1.17968 6.01511Z"
        fill="#6366F1" />
</svg>