<svg xmlns="http://www.w3.org/2000/svg" width="11" height="13" viewBox="0 0 11 13" fill="none">
    <path
        d="M6.74814 11.2969L6.74814 4.01956L9.03759 6.21927C9.28827 6.46865 9.6595 6.56866 10.0086 6.48087C10.3577 6.39308 10.6303 6.13114 10.7217 5.79574C10.813 5.46034 10.7089 5.10366 10.4494 4.8628L6.4556 1.02555C6.26828 0.845118 6.01394 0.743714 5.74869 0.743714C5.48345 0.743714 5.22911 0.845118 5.04179 1.02555L1.04799 4.8628C0.658133 5.23791 0.65858 5.84565 1.04899 6.22023C1.4394 6.59481 2.07194 6.59438 2.4618 6.21927L4.75124 4.01956V11.2969C4.75124 11.8267 5.19826 12.2562 5.74969 12.2562C6.30112 12.2562 6.74814 11.8267 6.74814 11.2969Z"
        fill="#4285F4" />
</svg>